<?xml version="1.0" standalone="no"?>
<!DOCTYPE svg PUBLIC "-//W3C//DTD SVG 20010904//EN"
 "http://www.w3.org/TR/2001/REC-SVG-20010904/DTD/svg10.dtd">
<svg version="1.0" xmlns="http://www.w3.org/2000/svg"
 width="319.000000pt" height="94.000000pt" viewBox="0 0 319.000000 94.000000"
 preserveAspectRatio="xMidYMid meet">
<metadata>
Created by potrace 1.16, written by Peter Selinger 2001-2019
</metadata>
<g transform="translate(0.000000,94.000000) scale(0.100000,-0.100000)"
fill="#000000" stroke="none">
<path d="M426 834 c-3 -9 -6 -29 -6 -45 0 -39 -29 -39 -52 1 -21 37 -42 38
-91 5 -39 -27 -47 -54 -22 -75 17 -14 20 -36 5 -45 -5 -3 -23 1 -41 10 -38 20
-53 15 -79 -27 -27 -45 -25 -66 10 -86 38 -21 40 -52 4 -52 -49 0 -64 -16 -64
-68 0 -57 12 -72 57 -72 41 0 46 -30 8 -50 -34 -18 -40 -45 -18 -82 28 -48 47
-56 84 -34 23 14 34 15 42 7 9 -9 8 -16 -1 -29 -33 -46 -27 -65 31 -97 41 -22
64 -16 82 24 13 27 52 25 47 -3 -2 -10 -1 -29 2 -42 5 -20 13 -24 41 -24 24 0
35 5 35 15 0 8 -7 15 -15 15 -11 0 -15 11 -15 41 0 37 -3 41 -36 55 -45 19
-70 11 -90 -27 -13 -26 -18 -29 -32 -18 -9 8 -19 14 -21 16 -1 1 4 12 13 25
23 32 20 50 -14 83 -30 29 -30 29 -65 12 -43 -21 -41 -21 -49 0 -5 11 4 26 24
45 27 24 31 33 24 60 -8 40 -29 57 -71 58 -26 0 -33 4 -33 20 0 16 7 20 33 20
44 0 64 17 72 62 7 35 5 39 -24 55 -32 19 -37 29 -22 52 8 12 13 12 35 -2 35
-23 48 -21 79 11 31 32 33 49 11 80 -15 22 -15 24 2 37 17 12 20 12 29 -2 36
-57 40 -59 87 -43 41 14 43 17 46 58 2 28 8 42 18 42 8 0 14 7 14 15 0 21 -66
21 -74 -1z"/>
<path d="M539 823 c-14 -37 -8 -748 7 -763 6 -6 18 -8 27 -4 15 5 15 8 2 21
-22 22 -22 724 0 746 13 13 13 16 -1 21 -23 9 -24 8 -35 -21z"/>
<path d="M990 445 l0 -295 60 0 60 0 0 130 c0 119 8 156 24 114 3 -9 6 -67 6
-130 l0 -114 55 0 55 0 0 133 c0 119 -2 136 -19 151 -19 17 -19 18 0 37 16 16
19 34 19 105 0 140 -27 164 -182 164 l-78 0 0 -295z"/>
<path d="M445 681 c-50 -12 -89 -37 -132 -84 -51 -56 -68 -121 -52 -199 16
-72 91 -152 162 -173 68 -20 77 -19 77 10 0 20 -5 25 -24 25 -85 0 -175 96
-176 188 0 40 24 99 53 130 29 31 90 62 122 62 21 0 26 4 23 22 -4 25 -12 28
-53 19z"/>
<path d="M1330 613 c-19 -17 -35 -44 -40 -68 -13 -57 -11 -272 4 -320 15 -51
63 -85 120 -85 84 0 120 43 131 152 l7 68 -61 0 -61 0 0 -61 c0 -44 -3 -60
-12 -57 -8 3 -14 29 -16 71 l-3 67 77 0 77 0 -8 83 c-11 135 -45 177 -139 177
-36 0 -52 -6 -76 -27z"/>
<path d="M1601 615 c-23 -20 -31 -36 -36 -78 -11 -88 6 -130 75 -184 52 -40
60 -51 60 -80 0 -34 -13 -44 -24 -17 -3 9 -6 27 -6 40 0 22 -4 24 -50 24 l-50
0 0 -50 c0 -64 15 -95 55 -115 66 -31 156 -10 175 41 6 14 10 58 10 99 0 81
-5 89 -99 164 -29 23 -41 39 -39 54 5 37 28 32 28 -7 l0 -36 56 0 57 0 -6 58
c-5 47 -11 62 -37 85 -25 22 -40 27 -84 27 -44 0 -60 -5 -85 -25z"/>
<path d="M2257 623 c-11 -11 -17 -13 -17 -5 0 8 -19 12 -55 12 l-55 0 0 -240
0 -240 55 0 55 0 2 190 c2 118 7 190 13 190 6 0 11 -72 13 -190 l2 -190 60 0
60 0 0 195 c0 123 4 195 10 195 6 0 10 -72 10 -195 l0 -195 60 0 60 0 0 208
c0 177 -3 212 -18 242 -15 30 -22 35 -58 38 -30 2 -45 -2 -58 -17 -17 -19 -18
-19 -37 0 -24 24 -79 25 -102 2z"/>
<path d="M2601 615 c-41 -35 -54 -106 -49 -260 6 -170 36 -215 140 -215 78 0
115 46 125 155 l6 65 -62 0 -61 0 0 -61 c0 -44 -3 -60 -12 -57 -8 3 -14 29
-16 71 l-3 67 77 0 77 0 -7 86 c-3 47 -13 99 -21 115 -32 62 -138 80 -194 34z"/>
<path d="M2977 623 c-11 -11 -17 -13 -17 -5 0 8 -20 12 -60 12 l-60 0 0 -240
0 -240 60 0 60 0 2 190 c4 255 22 255 26 0 l2 -190 60 0 60 0 0 193 c0 204 -8
264 -36 284 -25 18 -77 16 -97 -4z"/>
<path d="M1830 433 c0 -207 8 -266 40 -283 21 -11 73 -13 83 -3 4 3 38 5 77 4
l70 -2 0 240 0 241 -60 0 -60 0 -2 -190 c-4 -255 -22 -255 -26 0 l-2 190 -60
0 -60 0 0 -197z"/>
</g>
</svg>
